HIERARCHY
ROOT Reference
{
  OFFSET 0 0 0
  CHANNELS 6 Xposition Yposition Zposition Zrotation Xrotation Yrotation
  JOINT Hips
  {
    OFFSET 251.394 724.17 483.536
    CHANNELS 3 Zrotation Xrotation Yrotation
    JOINT RightUpLeg
    {
      OFFSET -0.450515 -23.4426 -1.37224
      CHANNELS 3 Zrotation Xrotation Yrotation
      JOINT RightLeg
      {
        OFFSET 112.821 0.0872427 -0.321027
        CHANNELS 3 Zrotation Xrotation Yrotation
        JOINT RightFoot
        {
          OFFSET 105.718 0.000193788 0.0213165
          CHANNELS 3 Zrotation Xrotation Yrotation
          JOINT RightToeBase
          {
            OFFSET 37.638 -0.000116272 0.00224792
            CHANNELS 3 Zrotation Xrotation Yrotation
            JOINT RightToeEnd
            {
              OFFSET 21.2112 0.114605 -0.000138184
              CHANNELS 3 Zrotation Xrotation Yrotation
              End Site
              {
                OFFSET 0 0 0
              }
            }
          }
        }
      }
    }
    JOINT LeftUpLeg
    {
      OFFSET -0.449508 23.4315 -1.37054
      CHANNELS 3 Zrotation Xrotation Yrotation
      JOINT LeftLeg
      {
        OFFSET 112.821 -0.0485242 -0.372458
        CHANNELS 3 Zrotation Xrotation Yrotation
        JOINT LeftFoot
        {
          OFFSET 105.716 0.00496094 -0.0229443
          CHANNELS 3 Zrotation Xrotation Yrotation
          JOINT LeftToeBase
          {
            OFFSET 37.639 0 0.00158905
            CHANNELS 3 Zrotation Xrotation Yrotation
            JOINT LeftToeEnd
            {
              OFFSET 21.2113 -0.125031 -0.00017438
              CHANNELS 3 Zrotation Xrotation Yrotation
              End Site
              {
                OFFSET 0 0 0
              }
            }
          }
        }
      }
    }
    JOINT Spine
    {
      OFFSET -5.01225 0.000463591 -9.60395
      CHANNELS 3 Zrotation Xrotation Yrotation
      JOINT Spine1
      {
        OFFSET 26.0222 -0.000271301 -0.000155029
        CHANNELS 3 Zrotation Xrotation Yrotation
        JOINT Spine2
        {
          OFFSET 27.173 -0.000155029 -0.000310058
          CHANNELS 3 Zrotation Xrotation Yrotation
          JOINT Spine3
          {
            OFFSET 36.3953 -0.000232544 7.75146e-005
            CHANNELS 3 Zrotation Xrotation Yrotation
            JOINT Neck
            {
              OFFSET 36.4331 0 -3.00261
              CHANNELS 3 Zrotation Xrotation Yrotation
              JOINT Head
              {
                OFFSET 23.0407 -0.000232544 -0.000310058
                CHANNELS 3 Zrotation Xrotation Yrotation
                End Site
                {
                  OFFSET 0 0 0
                }
              }
            }
            JOINT LeftShoulder
            {
              OFFSET 20.1317 6.74168 -12.6061
              CHANNELS 3 Zrotation Xrotation Yrotation
              JOINT LeftArm
              {
                OFFSET 34.2172 -5.81359e-005 7.75146e-005
                CHANNELS 3 Zrotation Xrotation Yrotation
                JOINT LeftForeArm
                {
                  OFFSET 65.4129 -0.0821605 0.0585235
                  CHANNELS 3 Zrotation Xrotation Yrotation
                  JOINT LeftHand
                  {
                    OFFSET 67.3883 0.0359667 0.0112396
                    CHANNELS 3 Zrotation Xrotation Yrotation
                    JOINT LeftHandThumb1
                    {
                      OFFSET 8.78386 2.85353 -6.05362
                      CHANNELS 3 Zrotation Xrotation Yrotation
                      JOINT LeftHandThumb2
                      {
                        OFFSET 8.25498 -0.000116272 -0.000174407
                        CHANNELS 3 Zrotation Xrotation Yrotation
                        JOINT LeftHandThumb3
                        {
                          OFFSET 7.24822 0.000310058 5.81358e-005
                          CHANNELS 3 Zrotation Xrotation Yrotation
                          JOINT LeftHandThumb4
                          {
                            OFFSET 7.0004 -3.87568e-005 -0.000310057
                            CHANNELS 3 Zrotation Xrotation Yrotation
                            End Site
                            {
                              OFFSET 0 0 0
                            }
                          }
                        }
                      }
                    }
                    JOINT LeftHandIndex1
                    {
                      OFFSET 24.0991 -1.01537 -5.40558
                      CHANNELS 3 Zrotation Xrotation Yrotation
                      JOINT LeftHandIndex2
                      {
                        OFFSET 7.26759 -0.000290679 -0.000465086
                        CHANNELS 3 Zrotation Xrotation Yrotation
                        JOINT LeftHandIndex3
                        {
                          OFFSET 7.13628 -1.93787e-005 0.000232543
                          CHANNELS 3 Zrotation Xrotation Yrotation
                          JOINT LeftHandIndex4
                          {
                            OFFSET 5.46699 9.68932e-005 -0.000387571
                            CHANNELS 3 Zrotation Xrotation Yrotation
                            End Site
                            {
                              OFFSET 0 0 0
                            }
                          }
                        }
                      }
                    }
                    JOINT LeftHandMiddle1
                    {
                      OFFSET 24.4604 -2.52837 0.918567
                      CHANNELS 3 Zrotation Xrotation Yrotation
                      JOINT LeftHandMiddle2
                      {
                        OFFSET 7.41627 -5.81359e-005 0.000116271
                        CHANNELS 3 Zrotation Xrotation Yrotation
                        JOINT LeftHandMiddle3
                        {
                          OFFSET 8.76829 3.87573e-005 -7.75142e-005
                          CHANNELS 3 Zrotation Xrotation Yrotation
                          JOINT LeftHandMiddle4
                          {
                            OFFSET 6.07588 -0.00013565 -5.81356e-005
                            CHANNELS 3 Zrotation Xrotation Yrotation
                            End Site
                            {
                              OFFSET 0 0 0
                            }
                          }
                        }
                      }
                    }
                    JOINT LeftHandRing1
                    {
                      OFFSET 22.465 -1.97467 6.3466
                      CHANNELS 3 Zrotation Xrotation Yrotation
                      JOINT LeftHandRing2
                      {
                        OFFSET 7.36666 -0.000232544 0.000387571
                        CHANNELS 3 Zrotation Xrotation Yrotation
                        JOINT LeftHandRing3
                        {
                          OFFSET 8.07624 -0.000465087 -0.000203475
                          CHANNELS 3 Zrotation Xrotation Yrotation
                          JOINT LeftHandRing4
                          {
                            OFFSET 6.04433 0.00013565 3.87571e-005
                            CHANNELS 3 Zrotation Xrotation Yrotation
                            End Site
                            {
                              OFFSET 0 0 0
                            }
                          }
                        }
                      }
                    }
                    JOINT LeftHandPinky1
                    {
                      OFFSET 19.5278 0.352933 10.4295
                      CHANNELS 3 Zrotation Xrotation Yrotation
                      JOINT LeftHandPinky2
                      {
                        OFFSET 6.16525 5.8136e-005 -0.000251921
                        CHANNELS 3 Zrotation Xrotation Yrotation
                        JOINT LeftHandPinky3
                        {
                          OFFSET 6.14448 -0.000329434 -0.00510625
                          CHANNELS 3 Zrotation Xrotation Yrotation
                          JOINT LeftHandPinky4
                          {
                            OFFSET 4.98555 0.000116272 0.000116271
                            CHANNELS 3 Zrotation Xrotation Yrotation
                            End Site
                            {
                              OFFSET 0 0 0
                            }
                          }
                        }
                      }
                    }
                  }
                }
              }
            }
            JOINT RightShoulder
            {
              OFFSET 20.1309 -6.74152 -12.6063
              CHANNELS 3 Zrotation Xrotation Yrotation
              JOINT RightArm
              {
                OFFSET 34.2171 7.75146e-005 7.75146e-005
                CHANNELS 3 Zrotation Xrotation Yrotation
                JOINT RightForeArm
                {
                  OFFSET 65.4492 0.242543 -0.176501
                  CHANNELS 3 Zrotation Xrotation Yrotation
                  JOINT RightHand
                  {
                    OFFSET 67.3888 -0.0867388 0.0597442
                    CHANNELS 3 Zrotation Xrotation Yrotation
                    JOINT RightHandThumb1
                    {
                      OFFSET 8.78307 -2.85357 -6.05302
                      CHANNELS 3 Zrotation Xrotation Yrotation
                      JOINT RightHandThumb2
                      {
                        OFFSET 8.25493 -7.75145e-005 0
                        CHANNELS 3 Zrotation Xrotation Yrotation
                        JOINT RightHandThumb3
                        {
                          OFFSET 7.24797 -0.000174408 0.000155029
                          CHANNELS 3 Zrotation Xrotation Yrotation
                          JOINT RightHandThumb4
                          {
                            OFFSET 7.00062 0 0
                            CHANNELS 3 Zrotation Xrotation Yrotation
                            End Site
                            {
                              OFFSET 0 0 0
                            }
                          }
                        }
                      }
                    }
                    JOINT RightHandIndex1
                    {
                      OFFSET 24.0991 1.01525 -5.40578
                      CHANNELS 3 Zrotation Xrotation Yrotation
                      JOINT RightHandIndex2
                      {
                        OFFSET 7.26773 7.75144e-005 0.000232543
                        CHANNELS 3 Zrotation Xrotation Yrotation
                        JOINT RightHandIndex3
                        {
                          OFFSET 7.13572 -0.000310058 3.87571e-005
                          CHANNELS 3 Zrotation Xrotation Yrotation
                          JOINT RightHandIndex4
                          {
                            OFFSET 5.46717 0 3.87572e-005
                            CHANNELS 3 Zrotation Xrotation Yrotation
                            End Site
                            {
                              OFFSET 0 0 0
                            }
                          }
                        }
                      }
                    }
                    JOINT RightHandMiddle1
                    {
                      OFFSET 24.4603 2.52899 0.918547
                      CHANNELS 3 Zrotation Xrotation Yrotation
                      JOINT RightHandMiddle2
                      {
                        OFFSET 7.41641 -0.000116272 -0.000116272
                        CHANNELS 3 Zrotation Xrotation Yrotation
                        JOINT RightHandMiddle3
                        {
                          OFFSET 8.76765 -3.87577e-005 0.000232543
                          CHANNELS 3 Zrotation Xrotation Yrotation
                          JOINT RightHandMiddle4
                          {
                            OFFSET 6.07609 -0.000193787 -0.000116271
                            CHANNELS 3 Zrotation Xrotation Yrotation
                            End Site
                            {
                              OFFSET 0 0 0
                            }
                          }
                        }
                      }
                    }
                    JOINT RightHandRing1
                    {
                      OFFSET 22.465 1.97571 6.34696
                      CHANNELS 3 Zrotation Xrotation Yrotation
                      JOINT RightHandRing2
                      {
                        OFFSET 7.36684 0.000193786 0.000155029
                        CHANNELS 3 Zrotation Xrotation Yrotation
                        JOINT RightHandRing3
                        {
                          OFFSET 8.07614 -0.000271301 0
                          CHANNELS 3 Zrotation Xrotation Yrotation
                          JOINT RightHandRing4
                          {
                            OFFSET 6.04468 0.000232543 0
                            CHANNELS 3 Zrotation Xrotation Yrotation
                            End Site
                            {
                              OFFSET 0 0 0
                            }
                          }
                        }
                      }
                    }
                    JOINT RightHandPinky1
                    {
                      OFFSET 19.5277 -0.352346 10.4296
                      CHANNELS 3 Zrotation Xrotation Yrotation
                      JOINT RightHandPinky2
                      {
                        OFFSET 6.16508 0 0.000232543
                        CHANNELS 3 Zrotation Xrotation Yrotation
                        JOINT RightHandPinky3
                        {
                          OFFSET 6.14396 -0.000155048 -0.0048834
                          CHANNELS 3 Zrotation Xrotation Yrotation
                          JOINT RightHandPinky4
                          {
                            OFFSET 4.98577 -7.75146e-005 -7.75143e-005
                            CHANNELS 3 Zrotation Xrotation Yrotation
                            End Site
                            {
                              OFFSET 0 0 0
                            }
                          }
                        }
                      }
                    }
                  }
                }
              }
            }
          }
        }
      }
    }
  }
}
MOTION
Frames:	4
Frame Time:	0.0333333
0 0 0 -90 -7.01671e-015 -180 -135.219 77.2409 23.2773 142.519 -0.136166 -95.4535 -2.58912 -2.37485 -48.8137 16.6197 23.1711 35.6435 -16.919 21.3697 58.1273 -3.63571e-005 4.73438e-006 -86.4974 168.481 -22.9943 -115.383 -0.254059 -0.0887713 -5.02682 -8.80055 -2.45826 39.8249 -4.22205 4.03928 52.6675 7.34227e-005 -3.67177e-005 -86.4974 0.000488148 0.000101416 123.633 -8.3686 7.689 -12.0467 14.2144 5.16269 -13.7921 0.339928 -2.94197 -8.66912 3.7319 -6.09696 38.6756 7.98726 -11.9977 46.067 105.841 21.8189 -31.0699 63.3992 15.2249 -8.38981 -11.0978 30.1247 28.0485 -1.02346 -46.9316 -3.57641 -158.645 -1.25081 154.969 0.000466958 -0.000143668 18.1945 0.000151104 -5.28468e-005 11.9589 0.000180571 -0.00134288 -0.000154531 36.0656 86.5083 -17.7569 -0.000308892 -0.000220012 14.4451 0.00112168 -0.000801749 10.5803 -0.000578179 -0.000455321 -2.32884 -1.69205 86.8813 32.8038 0.000111915 -0.000172301 15.1989 0.000920758 -0.00070492 16.0249 -0.00049823 -0.000370341 -2.3282 -58.2561 83.2336 92.5777 0.000118474 -0.000861658 16.2201 0.00154053 -0.000413389 17.0667 -0.000617635 -0.000645251 -2.32753 -63.1764 86.0898 89.0328 0.00113039 -0.00114403 19.2789 0.000140413 -0.000155033 18.9148 0.00268176 -0.0010067 -2.32327 -54.8344 -20.6853 -8.73295 -3.26036 45.0428 26.968 7.0824 20.3329 24.6563 0.22625 35.6622 -10.3911 142.213 51.8015 169.894 -0.000195831 9.80202e-005 16.9256 7.42498e-005 8.16028e-005 18.8543 -0.00024414 -1.52588e-005 -180 -95.0294 -68.1709 -102.33 -0.000205643 -0.000232107 49.7581 3.03699e-005 -7.2225e-005 45.1944 -3.05175e-005 -0.000137329 -180 -105.983 -79.9218 -76.0642 -0.000208894 2.24422e-005 65.9844 -0.000296591 0.000340456 58.5702 3.05175e-005 -4.57764e-005 -180 -16.1798 -83.9647 34.4437 -9.85705e-005 0.000264832 55.5556 -0.000196296 -7.17747e-005 57.7158 -6.1035e-005 -0.000213623 -180 13.4555 -78.0188 70.4019 -0.000293229 0.000520016 51.2477 -4.22165e-005 0.000139282 49.3612 -6.10351e-005 -0.000152588 -180 
0 0 0 -90 -7.01671e-015 -180 -139.808 76.9582 27.0854 144.201 0.058006 -91.3035 -3.07923 -1.85597 -58.6254 15.3915 20.3791 34.0971 -16.6553 20.5451 58.6576 -3.71987e-005 4.66453e-006 -86.4974 168.434 -21.9118 -116.138 -0.25218 -0.049971 -6.43186 -8.25182 -1.83137 40.3373 -4.25923 4.00004 53.1978 7.34458e-005 -4.01217e-005 -86.4974 0.000537916 0.000136787 124.075 -7.88521 7.0189 -11.694 13.2928 5.04428 -13.7555 0.442067 -3.39281 -8.54468 4.204 -6.59781 39.0483 7.17662 -12.35 46.1321 106.382 21.846 -30.9993 61.3989 13.6336 -8.14301 -10.3015 28.2486 27.0343 0.474126 -45.0258 -2.96536 -158.645 -1.25086 154.917 0.000466891 -0.000157076 18.1945 0.000158425 -5.61251e-005 11.9273 0.000180569 -0.00134288 -0.000154531 35.6033 86.5172 -17.3716 -0.000308985 -0.000237286 14.3831 0.00111917 -0.00079697 10.5113 -0.00057817 -0.000464377 -2.32884 -1.69169 86.8812 32.7447 0.000128688 -0.000194228 15.1402 -0.0132043 -0.00470207 15.9516 -0.000484567 -0.000354007 -2.31822 -58.2939 83.2528 92.5699 0.000132716 -0.000877908 16.1746 0.00153134 -0.000393469 17.0212 -0.000492734 -0.000594833 -2.31829 -63.1762 86.1427 89.0276 0.00112528 -0.00111673 19.2307 0.000126786 -0.000169994 18.8603 0.00131396 -0.000520768 -2.326 -55.2968 -20.5294 -10.2272 -4.68306 45.1463 27.9747 6.98925 22.7748 25.5521 -0.716488 33.2409 -10.4255 142.22 51.8027 169.886 -0.000204171 9.68424e-005 16.9218 7.38748e-005 8.26347e-005 18.8576 -0.00024414 -3.05176e-005 -180 -95.0342 -68.1738 -102.326 -0.000208489 -0.000225489 49.7608 3.16542e-005 -7.47537e-005 45.1971 -3.05175e-005 -0.000152588 -180 -105.974 -79.9268 -76.0526 -0.000208672 1.597e-005 65.9844 -0.000297208 0.000335599 58.5561 3.05176e-005 -6.10353e-005 -180 -16.1797 -83.9647 34.4419 -9.52801e-005 0.000267307 55.5502 -0.000198447 -7.5261e-005 57.7105 -6.1035e-005 -0.000213623 -180 13.4538 -78.0213 70.3904 -0.000292973 0.000508887 51.2468 -3.90697e-005 0.000131243 49.3573 -6.10351e-005 -0.000152588 -180 
0 0 0 -90 -7.01671e-015 -180 -142.917 76.5828 29.4838 145.894 -0.146575 -87.91 -3.04405 -1.29316 -66.531 13.5362 17.1672 32.6233 -15.389 18.758 58.5889 -3.78772e-005 1.343e-006 -86.4974 167.943 -20.7004 -116.872 -0.249735 -0.014551 -8.61589 -7.66447 -1.03537 41.324 -4.27785 3.98012 53.4657 7.347e-005 -4.49058e-005 -86.4974 0.000456432 0.000250347 124.454 -7.34963 6.23371 -11.4571 12.8663 4.52195 -13.4746 0.504209 -3.63504 -8.27761 4.76237 -7.168 39.3935 5.92947 -12.8361 46.278 106.57 22.1066 -30.1446 59.149 12.1251 -8.1691 -10.0191 27.2648 26.227 2.4175 -45.0003 -2.48156 -158.644 -1.25075 154.768 0.000467175 -0.000195138 18.1945 0.000154393 -4.62657e-005 11.8358 0.000180573 -0.00134529 -0.000154531 34.2525 86.5422 -16.2436 -0.000295307 -0.00023924 14.2037 0.00109515 -0.000806918 10.3114 -0.00057814 -0.000484175 -2.32884 -1.69194 86.8813 32.5749 0.000109559 -0.000156822 14.9702 0.000890765 -0.000688339 15.7962 -0.000472949 -0.000338897 -2.30825 -58.4033 83.3085 92.5471 0.000110691 -0.000870485 16.0428 0.00154381 -0.000408617 16.8893 -0.000369403 -0.000542219 -2.30904 -63.1365 86.2877 88.958 0.00109693 -0.00113085 19.0909 0.000171422 -0.00018636 18.7024 -5.18653e-005 -3.31133e-005 -2.32873 -55.8314 -20.4682 -11.1796 -6.66683 45.1348 27.8098 6.62464 27.8635 28.4802 -1.85913 28.3185 -11.606 142.228 51.8039 169.878 -0.000211989 9.21471e-005 16.918 7.67792e-005 8.08107e-005 18.861 -0.00024414 -3.05176e-005 -180 -95.039 -68.1768 -102.322 -0.000206859 -0.000223234 49.7634 3.61842e-005 -7.7961e-005 45.1997 -3.05175e-005 -0.000152588 -180 -105.965 -79.9318 -76.041 -0.000208467 6.52115e-006 65.9844 -0.00029642 0.000339066 58.542 3.05176e-005 -6.10353e-005 -180 -16.1798 -83.9647 34.44 -9.1067e-005 0.000266175 55.5448 -0.000196814 -7.24065e-005 57.7052 -6.1035e-005 -0.000228882 -180 13.4521 -78.0238 70.3789 -0.00030112 0.000498498 51.246 -3.87841e-005 0.000125678 49.3534 -6.10351e-005 -0.000167847 -180 
0 0 0 -90 -7.01671e-015 -180 -146.027 76.4262 31.8386 147.86 -0.209372 -84.9174 -2.71877 -0.846451 -72.196 11.5272 14.4794 30.9294 -13.5078 16.1763 58.5419 -3.82113e-005 8.55669e-007 -86.4974 168.268 -19.4339 -117.609 -0.239653 0.0483528 -10.5554 -7.00977 -0.946462 42.3948 -4.27546 3.98267 53.4313 7.3491e-005 -5.29339e-005 -86.4974 0.000472647 0.000483059 125.141 -6.36076 5.26709 -11.2078 12.0178 3.82032 -13.2597 0.546721 -3.83278 -8.2003 5.56568 -8.02288 39.7861 4.52569 -13.1136 46.4561 106.379 22.3859 -29.2106 56.5932 9.8831 -8.2162 -8.94924 24.6015 24.959 4.20524 -41.8167 -2.74182 -158.645 -1.25113 154.528 0.000467161 -0.000282886 18.1945 0.000165096 -3.92529e-005 11.6893 0.000180569 -0.00134529 -0.00015453 32.0578 86.5794 -14.4054 -0.000317405 -0.000231667 13.9165 0.00112361 -0.000807436 9.99146 -0.000578131 -0.000525337 -2.32884 -1.69207 86.8813 32.303 0.000139699 -0.000183112 14.6981 0.000888728 -0.000694205 15.5241 -0.000458825 -0.000322043 -2.29826 -58.5776 83.3977 92.5098 0.000119622 -0.000882596 15.8318 0.00152376 -0.000397517 16.6783 -0.000243974 -0.000488022 -2.29979 -63.0607 86.5198 88.8345 0.00114128 -0.00114126 18.8671 0.000135722 -0.000161886 18.4498 -5.1839e-005 -6.31258e-005 -2.32873 -56.5813 -20.384 -12.4823 -9.27918 44.8125 28.0847 6.48831 33.0977 32.0134 -3.24765 23.4676 -13.2549 142.235 51.8051 169.87 -0.00021722 9.24062e-005 16.9142 7.73497e-005 7.90333e-005 18.8643 -0.00024414 -4.57764e-005 -180 -95.0438 -68.1797 -102.319 -0.000210325 -0.000217808 49.7661 3.39488e-005 -7.97204e-005 45.2024 -3.05175e-005 -0.000183106 -180 -105.956 -79.9368 -76.0293 -0.000208231 -1.07919e-005 65.9844 -0.000298717 0.000334853 58.528 3.05176e-005 -7.62941e-005 -180 -16.1797 -83.9647 34.4383 -8.57182e-005 0.000269739 55.5394 -0.000200404 -7.53281e-005 57.6999 -6.1035e-005 -0.000228882 -180 13.4503 -78.0264 70.3673 -0.000296337 0.000500968 51.2421 -3.32303e-005 0.000122522 49.3494 -6.10351e-005 -0.000183106 -180 
